<svg xmlns="http://www.w3.org/2000/svg" version="1.1" width="14in" height="8in" viewBox = " 0 0 1260 720" >
<!-- Front--> 
<g transform="translate(22.5, 22.5) " > 
<polygon style="stroke:#0000FF; fill:none; stroke-width:0.035433071999999996" points="0, 0 40.49999999999999, 0 40.49999999999999, 10.62 80.99999999999999, 10.62 80.99999999999999, 0 107.99999999999999, 0 107.99999999999999, 10.62 135, 10.62 135, 0 162, 0 162, 10.62 189, 10.62 189, 0 216, 0 216, 10.62 243, 10.62 243, 0 270, 0 270, 10.62 297, 10.62 297, 0 324, 0 324, 10.62 364.5, 10.62 364.5, 0 405, 0 405, 33.75 394.38, 33.75 394.38, 67.5 405, 67.5 405, 94.5 394.38, 94.5 394.38, 121.5 405, 121.5 405, 148.5 394.38, 148.5 394.38, 175.5 405, 175.5 405, 202.5 394.38, 202.5 394.38, 236.25 405, 236.25 405, 270 364.5, 270 364.5, 259.38 324, 259.38 324, 270 297, 270 297, 259.38 270, 259.38 270, 270 243, 270 243, 259.38 216, 259.38 216, 270 189, 270 189, 259.38 162, 259.38 162, 270 135, 270 135, 259.38 107.99999999999999, 259.38 107.99999999999999, 270 80.99999999999999, 270 80.99999999999999, 259.38 40.49999999999999, 259.38 40.49999999999999, 270 0, 270 0, 236.25 10.62, 236.25 10.62, 202.5 0, 202.5 0, 175.5 10.62, 175.5 10.62, 148.5 0, 148.5 0, 121.5 10.62, 121.5 10.62, 94.5 0, 94.5 0, 67.5 10.62, 67.5 10.62, 33.75 0, 33.75 "/> 
 <rect x="90" y="211.5" width="225" height="18" rx="22.5" ry="22.5" style="stroke:#0000FF;stroke-width:0.035433071999999996;fill:none" /> 
</g>
<!-- Back--> 
<g transform="translate(427.5, 22.5) " > 
<polygon style="stroke:#0000FF; fill:none; stroke-width:0.035433071999999996" points="0, 0 40.49999999999999, 0 40.49999999999999, 10.62 80.99999999999999, 10.62 80.99999999999999, 0 107.99999999999999, 0 107.99999999999999, 10.62 135, 10.62 135, 0 162, 0 162, 10.62 189, 10.62 189, 0 216, 0 216, 10.62 243, 10.62 243, 0 270, 0 270, 10.62 297, 10.62 297, 0 324, 0 324, 10.62 364.5, 10.62 364.5, 0 405, 0 405, 33.75 394.38, 33.75 394.38, 67.5 405, 67.5 405, 94.5 394.38, 94.5 394.38, 121.5 405, 121.5 405, 148.5 394.38, 148.5 394.38, 175.5 405, 175.5 405, 202.5 394.38, 202.5 394.38, 236.25 405, 236.25 405, 270 364.5, 270 364.5, 259.38 324, 259.38 324, 270 297, 270 297, 259.38 270, 259.38 270, 270 243, 270 243, 259.38 216, 259.38 216, 270 189, 270 189, 259.38 162, 259.38 162, 270 135, 270 135, 259.38 107.99999999999999, 259.38 107.99999999999999, 270 80.99999999999999, 270 80.99999999999999, 259.38 40.49999999999999, 259.38 40.49999999999999, 270 0, 270 0, 236.25 10.62, 236.25 10.62, 202.5 0, 202.5 0, 175.5 10.62, 175.5 10.62, 148.5 0, 148.5 0, 121.5 10.62, 121.5 10.62, 94.5 0, 94.5 0, 67.5 10.62, 67.5 10.62, 33.75 0, 33.75 "/> 
 <rect x="261" y="211.5" width="45" height="36" rx="NaN" ry="NaN" style="stroke:#0000FF;stroke-width:0.035433071999999996;fill:none" /> 
</g>
<!-- Left--> 
<g transform="translate(832.5, 22.5) " > 
<polygon style="stroke:#0000FF; fill:none; stroke-width:0.035433071999999996" points="10.62, 0 40.49999999999999, 0 40.49999999999999, 10.62 80.99999999999999, 10.62 80.99999999999999, 0 107.99999999999999, 0 107.99999999999999, 10.62 135, 10.62 135, 0 162, 0 162, 10.62 189, 10.62 189, 0 216, 0 216, 10.62 243, 10.62 243, 0 270, 0 270, 10.62 297, 10.62 297, 0 324, 0 324, 10.62 364.5, 10.62 364.5, 0 394.38, 0 394.38, 33.75 405, 33.75 405, 67.5 394.38, 67.5 394.38, 94.5 405, 94.5 405, 121.5 394.38, 121.5 394.38, 148.5 405, 148.5 405, 175.5 394.38, 175.5 394.38, 202.5 405, 202.5 405, 236.25 394.38, 236.25 394.38, 270 364.5, 270 364.5, 259.38 324, 259.38 324, 270 297, 270 297, 259.38 270, 259.38 270, 270 243, 270 243, 259.38 216, 259.38 216, 270 189, 270 189, 259.38 162, 259.38 162, 270 135, 270 135, 259.38 107.99999999999999, 259.38 107.99999999999999, 270 80.99999999999999, 270 80.99999999999999, 259.38 40.49999999999999, 259.38 40.49999999999999, 270 10.62, 270 10.62, 236.25 0, 236.25 0, 202.5 10.62, 202.5 10.62, 175.5 0, 175.5 0, 148.5 10.62, 148.5 10.62, 121.5 0, 121.5 0, 94.5 10.62, 94.5 10.62, 67.5 0, 67.5 0, 33.75 10.62, 33.75 "/> 
</g>
<!-- Right--> 
<g transform="translate(832.5, 292.5) " > 
<polygon style="stroke:#0000FF; fill:none; stroke-width:0.035433071999999996" points="10.62, 0 40.49999999999999, 0 40.49999999999999, 10.62 80.99999999999999, 10.62 80.99999999999999, 0 107.99999999999999, 0 107.99999999999999, 10.62 135, 10.62 135, 0 162, 0 162, 10.62 189, 10.62 189, 0 216, 0 216, 10.62 243, 10.62 243, 0 270, 0 270, 10.62 297, 10.62 297, 0 324, 0 324, 10.62 364.5, 10.62 364.5, 0 394.38, 0 394.38, 33.75 405, 33.75 405, 67.5 394.38, 67.5 394.38, 94.5 405, 94.5 405, 121.5 394.38, 121.5 394.38, 148.5 405, 148.5 405, 175.5 394.38, 175.5 394.38, 202.5 405, 202.5 405, 236.25 394.38, 236.25 394.38, 270 364.5, 270 364.5, 259.38 324, 259.38 324, 270 297, 270 297, 259.38 270, 259.38 270, 270 243, 270 243, 259.38 216, 259.38 216, 270 189, 270 189, 259.38 162, 259.38 162, 270 135, 270 135, 259.38 107.99999999999999, 259.38 107.99999999999999, 270 80.99999999999999, 270 80.99999999999999, 259.38 40.49999999999999, 259.38 40.49999999999999, 270 10.62, 270 10.62, 236.25 0, 236.25 0, 202.5 10.62, 202.5 10.62, 175.5 0, 175.5 0, 148.5 10.62, 148.5 10.62, 121.5 0, 121.5 0, 94.5 10.62, 94.5 10.62, 67.5 0, 67.5 0, 33.75 10.62, 33.75 "/> 
</g>
<!-- Top--> 
<g transform="translate(22.5, 292.5) " > 
<polygon style="stroke:#0000FF; fill:none; stroke-width:0.035433071999999996" points="10.62, 10.62 40.49999999999999, 10.62 40.49999999999999, 0 80.99999999999999, 0 80.99999999999999, 10.62 107.99999999999999, 10.62 107.99999999999999, 0 135, 0 135, 10.62 162, 10.62 162, 0 189, 0 189, 10.62 216, 10.62 216, 0 243, 0 243, 10.62 270, 10.62 270, 0 297, 0 297, 10.62 324, 10.62 324, 0 364.5, 0 364.5, 10.62 394.38, 10.62 394.38, 40.49999999999999 405, 40.49999999999999 405, 80.99999999999999 394.38, 80.99999999999999 394.38, 107.99999999999999 405, 107.99999999999999 405, 135 394.38, 135 394.38, 162 405, 162 405, 189 394.38, 189 394.38, 216 405, 216 405, 243 394.38, 243 394.38, 270 405, 270 405, 297 394.38, 297 394.38, 324 405, 324 405, 364.5 394.38, 364.5 394.38, 394.38 364.5, 394.38 364.5, 405 324, 405 324, 394.38 297, 394.38 297, 405 270, 405 270, 394.38 243, 394.38 243, 405 216, 405 216, 394.38 189, 394.38 189, 405 162, 405 162, 394.38 135, 394.38 135, 405 107.99999999999999, 405 107.99999999999999, 394.38 80.99999999999999, 394.38 80.99999999999999, 405 40.49999999999999, 405 40.49999999999999, 394.38 10.62, 394.38 10.62, 364.5 0, 364.5 0, 324 10.62, 324 10.62, 297 0, 297 0, 270 10.62, 270 10.62, 243 0, 243 0, 216 10.62, 216 10.62, 189 0, 189 0, 162 10.62, 162 10.62, 135 0, 135 0, 107.99999999999999 10.62, 107.99999999999999 10.62, 80.99999999999999 0, 80.99999999999999 0, 40.49999999999999 10.62, 40.49999999999999 "/> 
 <circle cx="202.5" cy="202.5" r="117" style="stroke:#0000FF;stroke-width:0.035433071999999996;fill:none" /> 
</g>
<!-- Bottom--> 
<g transform="translate(427.5, 292.5) " > 
<polygon style="stroke:#0000FF; fill:none; stroke-width:0.035433071999999996" points="10.62, 10.62 40.49999999999999, 10.62 40.49999999999999, 0 80.99999999999999, 0 80.99999999999999, 10.62 107.99999999999999, 10.62 107.99999999999999, 0 135, 0 135, 10.62 162, 10.62 162, 0 189, 0 189, 10.62 216, 10.62 216, 0 243, 0 243, 10.62 270, 10.62 270, 0 297, 0 297, 10.62 324, 10.62 324, 0 364.5, 0 364.5, 10.62 394.38, 10.62 394.38, 40.49999999999999 405, 40.49999999999999 405, 80.99999999999999 394.38, 80.99999999999999 394.38, 107.99999999999999 405, 107.99999999999999 405, 135 394.38, 135 394.38, 162 405, 162 405, 189 394.38, 189 394.38, 216 405, 216 405, 243 394.38, 243 394.38, 270 405, 270 405, 297 394.38, 297 394.38, 324 405, 324 405, 364.5 394.38, 364.5 394.38, 394.38 364.5, 394.38 364.5, 405 324, 405 324, 394.38 297, 394.38 297, 405 270, 405 270, 394.38 243, 394.38 243, 405 216, 405 216, 394.38 189, 394.38 189, 405 162, 405 162, 394.38 135, 394.38 135, 405 107.99999999999999, 405 107.99999999999999, 394.38 80.99999999999999, 394.38 80.99999999999999, 405 40.49999999999999, 405 40.49999999999999, 394.38 10.62, 394.38 10.62, 364.5 0, 364.5 0, 324 10.62, 324 10.62, 297 0, 297 0, 270 10.62, 270 10.62, 243 0, 243 0, 216 10.62, 216 10.62, 189 0, 189 0, 162 10.62, 162 10.62, 135 0, 135 0, 107.99999999999999 10.62, 107.99999999999999 10.62, 80.99999999999999 0, 80.99999999999999 0, 40.49999999999999 10.62, 40.49999999999999 "/> 
</g></svg>